<svg width="21" height="22" viewBox="0 0 21 22" fill="none" xmlns="http://www.w3.org/2000/svg">
<path d="M6.3 17.0391C5.145 17.0391 4.2 17.9606 4.2 19.0869C4.2 20.2132 5.145 21.1348 6.3 21.1348C7.455 21.1348 8.4 20.2132 8.4 19.0869C8.4 17.9606 7.455 17.0391 6.3 17.0391ZM0 0.656525V2.70435H2.1L5.88 10.4861L4.41 12.9435C4.305 13.2506 4.2 13.6602 4.2 13.9674C4.2 15.0937 5.145 16.0152 6.3 16.0152H18.9V13.9674H6.72C6.615 13.9674 6.51 13.865 6.51 13.7626V13.6602L7.455 11.9195H15.225C16.065 11.9195 16.695 11.5099 17.01 10.8956L20.79 4.24021C21 4.03543 21 3.93304 21 3.72826C21 3.11391 20.58 2.70435 19.95 2.70435H4.41L3.465 0.656525H0ZM16.8 17.0391C15.645 17.0391 14.7 17.9606 14.7 19.0869C14.7 20.2132 15.645 21.1348 16.8 21.1348C17.955 21.1348 18.9 20.2132 18.9 19.0869C18.9 17.9606 17.955 17.0391 16.8 17.0391Z" fill="#4F3F7D"/>
</svg>
