<svg width="34" height="34" viewBox="0 0 34 34" fill="none" xmlns="http://www.w3.org/2000/svg">
<path d="M32.5757 32.1314C28.4312 30.5228 24.7517 27.0605 24.1423 22.5824C24.1085 22.3335 24.3102 21.9926 24.5725 21.8256C24.7302 21.7246 24.889 21.6247 25.0508 21.5217C25.8816 21.0178 26.657 20.3319 27.4499 19.6931C28.1946 18.9672 28.9587 18.2684 29.603 17.4395C32.294 13.9733 34.2443 9.43123 33.9749 4.98716C33.9124 3.96138 33.7332 2.9406 33.4156 1.93981C33.3562 1.73085 33.304 1.54889 33.2599 1.39692C33.1739 1.09699 33.011 1.08699 32.8953 1.37293C32.8369 1.5179 32.7672 1.69186 32.6853 1.89182C32.5675 2.21575 32.3851 2.59767 32.1424 3.01658C30.6724 5.54005 26.5751 10.521 22.996 9.59619C22.1294 9.37224 21.5794 8.06452 21.0498 7.41565C19.4897 5.50306 17.5609 3.84241 15.4005 2.60067C11.5715 0.400133 6.31357 -0.758622 1.96318 0.552101C1.7491 0.610088 1.56266 0.661078 1.40696 0.704069C1.05561 0.800048 0.851771 0.855037 0.851771 0.855037C0.851771 0.855037 1.23795 1.00401 1.91401 1.26495C2.2459 1.38193 2.6372 1.55889 3.0664 1.79584C4.94197 2.83562 6.57887 4.09935 7.83677 5.83699C8.90208 7.30967 11.0604 10.362 8.90516 11.6688C3.79164 14.7691 -0.247349 21.1518 0.0118094 27.1615C0.0271746 27.5204 0.0425397 27.8663 0.0568805 28.1993C0.0691727 28.8501 0.171607 29.442 0.2597 29.9539C0.33038 30.4638 0.428717 30.8967 0.541395 31.2506C0.600807 31.4596 0.653048 31.6415 0.697095 31.7935C0.78314 32.0944 0.94601 32.1044 1.06176 31.8175C1.12015 31.6715 1.19083 31.4986 1.27175 31.2986C1.3916 30.9747 1.57291 30.5918 1.8167 30.1738C2.04308 29.7539 2.28892 29.293 2.64027 28.8301C3.78549 27.3204 5.1745 25.9567 6.83291 24.9869C7.70872 24.473 10.8074 22.7894 11.6217 24.0081C14.7931 28.7571 19.6362 32.0395 25.3899 32.9613C25.8222 33.0302 26.2422 33.0842 26.6611 33.0942C27.0545 33.1152 27.4365 33.1352 27.8053 33.1552C28.173 33.1392 28.5275 33.1262 28.8696 33.1112C29.5354 33.0982 30.1418 32.9993 30.6663 32.9133C31.1887 32.8453 31.6323 32.7483 31.9949 32.6383C32.209 32.5803 32.3964 32.5303 32.5511 32.4874C32.8553 32.4034 32.8666 32.2454 32.5757 32.1314ZM16.9749 19.846C15.1936 19.846 13.7513 18.4753 13.6622 16.7587C13.6591 16.7037 13.6458 16.6507 13.6458 16.5947C13.6458 14.7991 15.1373 13.3444 16.9749 13.3444C18.7573 13.3444 20.1996 14.7141 20.2897 16.4317C20.2918 16.4867 20.3061 16.5397 20.3061 16.5957C20.3061 18.3913 18.8157 19.846 16.9749 19.846Z" fill="#030104"/>
</svg>
